<?xml version="1.0" standalone="no"?>
<!DOCTYPE svg PUBLIC "-//W3C//DTD SVG 20010904//EN"
 "http://www.w3.org/TR/2001/REC-SVG-20010904/DTD/svg10.dtd">
<svg version="1.0" xmlns="http://www.w3.org/2000/svg"
 width="712.000000pt" height="712.000000pt" viewBox="0 0 512.000000 512.000000"
 preserveAspectRatio="xMidYMid meet">

<g transform="translate(-50.000000,550.000000) scale(0.1200000,-0.1200000)"
fill="#32CD32" stroke="none">
<path d="M2350 4619 c-456 -46 -911 -262 -1238 -588 -336 -334 -544 -755 -601
-1221 -14 -109 -14 -391 0 -500 105 -849 716 -1543 1544 -1755 184 -47 293
-60 510 -60 217 0 326 13 510 60 482 124 896 409 1185 819 192 271 318 600
359 936 14 109 14 391 0 500 -57 466 -265 887 -601 1221 -434 432 -1052 650
-1668 588z m1245 -893 c28 -12 67 -42 88 -66 75 -83 72 -46 75 -712 l3 -597
-378 -3 -378 -3 -50 -27 c-62 -32 -129 -103 -158 -166 -21 -45 -22 -63 -25
-414 l-3 -368 -592 0 -592 0 -50 24 c-27 12 -67 42 -88 66 -78 85 -72 0 -72
1100 0 1100 -6 1015 72 1100 21 24 61 54 88 66 l50 24 980 0 980 0 50 -24z
m155 -1434 c0 -4 -207 -214 -460 -467 -340 -339 -461 -455 -465 -443 -4 9 -5
171 -3 360 3 337 3 344 27 396 28 62 94 124 154 146 34 12 110 15 395 15 193
1 352 -2 352 -7z"/>
<path d="M3245 3042 c-247 -129 -467 -271 -773 -499 -152 -113 -154 -115 -175
-97 -12 10 -68 63 -124 118 l-103 101 -70 -70 c-38 -38 -70 -74 -70 -80 0 -12
372 -385 384 -385 5 0 113 102 240 228 343 338 607 576 779 703 43 33 75 59
70 59 -4 0 -75 -36 -158 -78z"/>
</g>
</svg>
